<svg xmlns="http://www.w3.org/2000/svg" width="21" height="20.938" viewBox="0 0 21 20.938"><g transform="translate(-448.505 -2356.5)" fill="none" stroke-linecap="round" stroke-linejoin="round"><path d="M459.005,2377.438a10.469,10.469,0,1,0-10.5-10.469A10.485,10.485,0,0,0,459.005,2377.438Z" stroke="none"/><path d="M 459.0050048828125 2375.9384765625 C 463.9676208496094 2375.9384765625 468.0050048828125 2371.914794921875 468.0050048828125 2366.96923828125 C 468.0050048828125 2362.023681640625 463.9676208496094 2358 459.0050048828125 2358 C 454.0423889160156 2358 450.0050048828125 2362.023681640625 450.0050048828125 2366.96923828125 C 450.0050048828125 2371.914794921875 454.0423889160156 2375.9384765625 459.0050048828125 2375.9384765625 M 459.0050048828125 2377.4384765625 C 453.2059936523438 2377.4384765625 448.5050048828125 2372.751220703125 448.5050048828125 2366.96923828125 C 448.5050048828125 2361.187255859375 453.2059936523438 2356.5 459.0050048828125 2356.5 C 464.8039855957031 2356.5 469.5050048828125 2361.187255859375 469.5050048828125 2366.96923828125 C 469.5050048828125 2372.751220703125 464.8039855957031 2377.4384765625 459.0050048828125 2377.4384765625 Z" stroke="none" fill="#9d9d9c"/></g><path d="M459.005,2367v-3.75" transform="translate(-448.505 -2356.524)" fill="none" stroke="#f0a55a" stroke-linecap="round" stroke-linejoin="round" stroke-width="1.5"/><path d="M459.005,2367l4.687,4.688" transform="translate(-448.505 -2356.54)" fill="none" stroke="#f0a55a" stroke-linecap="round" stroke-linejoin="round" stroke-width="1.5"/></svg>